<svg width="200" height="191" viewBox="0 0 200 191" fill="none" xmlns="http://www.w3.org/2000/svg">
<path d="M199.968 15.0424C199.876 14.8902 199.661 14.7888 199.445 14.8395C197.568 15.4989 195.692 16.0569 193.753 16.6403C188.43 18.2636 182.892 19.3288 177.353 20.3941C171.015 21.5608 164.553 22.3978 158.245 23.6914C152.799 24.782 147.384 26.1009 142.153 27.8257C138.215 29.0938 134.338 30.4635 130.707 32.2136C126.399 34.1666 122.922 37.0834 119.538 39.9748C116.43 42.6634 113.292 45.3519 110.553 48.3195C109.015 49.9935 107.722 51.8197 106.492 53.6458C108.43 47.6093 111.138 41.522 116.092 36.7029C116.461 36.3225 116.03 35.8659 115.507 36.0688C114.245 36.5761 113.076 37.2356 111.876 37.8443C102.707 42.9678 94.5223 49.334 87.4761 56.3597C84.03 59.8346 80.7069 63.3855 77.9684 67.2661C74.7992 71.8062 72.3992 76.7014 70.6761 81.7487C70.4915 78.7558 70.7992 75.7629 71.2915 72.7954C71.3838 72.2627 71.4761 71.7555 71.5069 71.2228C71.5069 70.8677 71.63 70.3605 71.1992 70.1576C70.8915 70.0307 70.5838 70.1576 70.3684 70.3605C70.0915 70.5888 69.8761 70.8424 69.63 71.096C69.1377 71.6287 68.6454 72.1867 68.1838 72.7447C66.6454 74.5455 65.2607 76.4477 64.0607 78.4261C61.1069 83.4227 58.3992 88.4701 55.6608 93.5428C52.8915 98.6156 50.3377 103.79 47.6608 108.888C45.1069 113.707 42.3069 118.45 39.4146 123.142C37.8454 125.653 36.2454 128.164 34.3684 130.548C33.5684 131.563 32.7377 132.552 31.8761 133.516C31.9992 133.313 32.1223 133.135 32.2454 132.933C34.7684 128.849 36.4915 124.486 38.0608 120.099C39.3531 117.283 40.6454 114.468 42.0915 111.729C43.7838 108.609 45.2915 105.438 46.7377 102.243C49.63 96.206 53.1377 90.4231 57.1377 84.8178C59.7223 81.1908 62.4915 77.6398 65.0146 73.9621C67.3838 70.5127 69.2607 66.8603 71.4146 63.3348C73.0146 60.6969 74.6454 58.0591 76.03 55.3452C76.43 54.5843 76.83 53.798 77.1992 53.0117C77.3531 52.6313 77.5377 52.2255 77.63 51.8197C77.63 51.6675 77.6608 51.4899 77.5377 51.3378C77.2607 50.9827 76.7069 51.1095 76.3684 51.3378C75.3838 51.9465 74.4607 52.5806 73.5069 53.24C70.43 55.3959 67.23 57.425 63.9377 59.3527C70.9838 52.3016 78.4915 45.0983 81.8761 36.221C82.1223 35.4601 82.7992 33.5578 82.1223 32.9238C81.6608 32.594 81.1377 33.0506 80.8607 33.3296C77.9992 36.2718 74.9838 39.1125 71.63 41.6742C72.9223 40.0002 74.1531 38.2755 75.2607 36.5C77.1069 33.4564 78.9223 30.3874 80.43 27.2169C82.2146 23.3363 83.5684 19.3542 84.9838 15.3975C86.43 11.0857 87.7223 6.72312 89.2915 2.43666C89.4454 2.03084 89.5992 1.62502 89.6915 1.19384C89.6915 1.06702 89.7531 0.914843 89.6915 0.788024C89.5992 0.559752 89.2607 0.40757 88.9838 0.483661C88.7377 0.534388 88.4915 0.661206 88.2761 0.813388C85.1377 3.2483 82.3377 5.96221 79.3223 8.47321C77.1069 10.3501 74.8607 12.2524 72.7377 14.2054C68.4607 18.2128 64.6454 22.5754 61.63 27.293C58.8915 31.5795 56.8915 36.221 55.6608 40.964C53.9992 47.1528 53.4454 53.4937 52.3992 59.7585C51.1992 57.0446 50.4915 54.1785 50.3377 51.2617C50.2761 50.2978 50.2146 49.2833 50.1531 48.2434C50.1531 47.7615 50.1531 46.7216 49.2608 46.9498C48.9838 47.0767 48.83 47.3303 48.6761 47.5839C48.3992 48.0405 48.1531 48.5224 47.9069 49.0043C47.1377 50.4754 46.2761 51.8957 45.4761 53.3415C43.1992 57.3997 41.23 61.61 40.2146 65.9979C39.3223 69.5996 38.8608 73.2773 38.8608 76.9297C38.8608 82.0531 39.8146 87.1005 39.7838 92.2493C38.0915 89.9919 36.3684 87.7092 35.6608 85.0714C35.2915 83.8286 35.0146 82.5858 34.7684 81.3429C34.7069 80.9878 34.6146 80.6074 34.5531 80.2523C34.4915 79.9987 34.4915 79.6689 34.2454 79.4914C33.6915 79.1363 33.3223 79.745 33.1992 80.1255C32.1531 82.8647 31.63 85.7562 31.5069 88.6477C31.3531 91.5645 31.6915 94.4813 32.03 97.3981C32.3377 100.036 32.6761 102.674 32.8915 105.337C32.7377 106.301 32.6761 107.265 32.5838 108.228C32.2146 112.971 31.5684 117.714 30.4608 122.381C29.7223 126.135 28.7684 129.838 27.1684 133.44C26.2454 136.002 25.0454 138.487 23.5377 140.846C23.2915 141.176 23.0761 141.531 22.8608 141.861C19.8761 146.248 17.1377 150.738 14.1223 155.1C12.3069 157.662 10.5531 160.275 8.92229 162.938C7.72229 164.662 6.6146 166.413 5.66076 168.213C4.82999 169.735 4.02999 171.282 3.29153 172.83C3.0146 173.489 2.2146 174.808 2.64537 175.467C3.29153 175.949 3.8146 175.315 4.2146 174.63C4.30691 174.554 4.39922 174.478 4.46076 174.402C4.70691 174.123 4.92229 173.844 5.10691 173.54C5.59922 172.855 6.09153 172.195 6.55306 171.536C8.58383 168.619 10.5531 165.677 12.5531 162.735C15.5377 158.169 18.7992 153.731 22.0915 149.292C22.6454 148.557 23.1684 147.821 23.7223 147.06C24.3992 146.248 25.0761 145.462 25.7838 144.651C27.0454 143.23 28.3992 141.861 29.8761 140.592C31.6915 138.944 33.9684 137.346 36.0915 135.951C39.1684 133.896 41.9377 131.563 44.6454 129.204C50.9531 123.548 56.8915 117.613 63.0454 111.83C67.1377 107.772 71.5377 103.866 76.2454 100.315C79.7223 97.9054 83.3223 95.5973 86.9838 93.3907C92.83 89.9412 98.9838 86.8722 104.799 83.372C111.661 79.2377 118.368 74.9259 124.522 70.0815C124.707 69.9039 124.922 69.701 124.799 69.4474C124.676 69.1177 124.184 69.1684 123.845 69.2445C122.461 69.5488 121.138 70.0054 119.784 70.2844C118.399 70.538 116.984 70.7663 115.599 70.9692C111.815 71.5779 107.938 71.8316 104.092 71.8569C106.276 71.1721 108.492 70.5127 110.707 69.9039C116.215 68.5343 121.784 67.3676 127.168 65.6936C136.738 62.9797 145.107 58.1098 152.768 52.7581C154.645 51.4646 156.553 50.171 158.276 48.7253C158.584 48.4209 159.045 48.1419 159.107 47.7108C159.107 47.2035 158.368 47.2035 157.907 47.3049C153.599 48.0658 149.261 48.8014 144.892 49.1818C141.999 49.4101 138.984 49.5877 136.092 49.1565C139.445 48.3195 142.83 47.5839 146.276 47.0006C149.476 46.4679 152.707 45.9607 155.815 45.1744C160.645 44.0077 164.984 41.7249 168.676 38.9349C170.892 37.1848 172.953 35.3079 174.984 33.4057C177.138 31.3766 179.076 29.1953 181.353 27.2423C184.338 24.6552 187.599 22.2964 191.076 20.1912C193.661 18.5172 196.43 17.0968 199.292 15.7526C199.507 15.6511 199.722 15.6004 199.938 15.4989C200.122 15.3975 200.184 15.2199 200.092 15.0424H199.968ZM31.8146 135.545C31.8146 135.545 31.8146 135.545 31.7531 135.545H31.7838H31.8146ZM39.1684 108.279C41.5377 101.887 43.8146 95.4705 46.2761 89.1042C48.5838 82.5857 50.8915 76.0673 53.3223 69.5996C56.03 61.9397 58.1838 54.1531 61.0454 46.5187C63.0761 41.1416 65.3531 35.8152 67.9069 30.5903C70.2146 25.8727 72.7992 21.2311 76.3069 17.0208C73.4454 22.6261 70.4915 28.1808 67.9992 33.8876C65.5992 38.8842 63.5684 43.9823 61.8146 49.1565C57.5377 60.5955 54.9531 72.4149 50.83 83.8793C49.0761 88.952 47.1069 93.974 44.9838 98.9707C43.4761 102.547 41.6915 106.123 40.2146 109.699C36.9223 117.638 33.8761 125.653 30.1223 133.465C30.0608 133.516 29.9992 133.567 29.9377 133.617C29.8146 133.592 29.6915 133.617 29.5992 133.643C30.2454 131.969 30.8608 130.269 31.3838 128.57C33.8761 121.773 36.6146 115.051 39.1684 108.279ZM131.661 45.9353C128.092 47.9644 124.522 49.9935 121.138 52.2001C115.507 55.9032 110.03 59.7331 104.584 63.6137C101.415 65.9472 98.5531 68.5597 95.5684 71.0707C92.6146 73.607 89.63 76.0927 86.83 78.7305C83.1069 82.1546 79.2915 85.5279 75.7223 89.0788C72.5838 92.1225 69.7223 95.369 66.8915 98.6156C64.7992 100.924 62.6761 103.232 60.7069 105.616C58.3684 108.381 55.9377 111.069 53.5992 113.834C51.2608 116.624 48.9531 119.414 46.6761 122.229C45.23 124.005 43.7838 125.805 42.0915 127.454C40.0915 129.407 38.03 131.461 35.7531 133.262C34.8915 133.896 34.0608 134.53 33.23 135.19C33.23 135.19 33.23 135.19 33.1992 135.19C32.7992 135.114 32.7992 134.809 32.8915 134.556C34.5223 133.059 36.1531 131.588 37.7531 130.066C39.6915 128.215 41.4454 126.237 43.0761 124.207C51.7531 113.758 60.5223 103.333 69.8454 93.2385C73.3223 89.51 76.9223 85.8323 80.7992 82.3828C87.4761 76.5492 94.3684 70.9185 101.261 65.237C110.153 57.9323 119.63 51.0841 129.938 45.1744C138.153 40.6089 146.892 36.7029 155.907 33.3296C147.476 37.058 139.599 41.5981 131.661 45.9607V45.9353Z" fill="#5534DA"/>
<path d="M139.23 174.275C138.984 174.706 138.646 175.086 138.276 175.442C134.4 178.764 128.676 180.489 123.261 181.377C117.784 182.315 112.153 181.453 106.8 180.464C112.123 176.837 118.092 172.601 119.292 166.691C120.461 159.615 112.369 155.024 104.584 154.719C78.5534 154.009 55.0457 165.651 32.9841 175.721C24.6149 179.5 15.2918 184.344 5.35337 182.442C3.96876 182.112 2.55337 181.377 2.1226 180.159C2.15337 179.829 1.96876 179.449 1.56876 179.297C-1.50817 178.79 0.676449 182.366 2.09183 183C14.3072 188.757 31.2918 178.079 42.0918 173.463C53.2303 168.441 64.738 163.368 76.8611 160.097C86.9226 157.636 98.8303 154.897 109.2 157.205C114.492 158.473 118.615 163.039 116.923 167.604C114.8 172.88 109.292 176.608 104.153 179.906C96.0611 178.308 87.6611 176.558 79.2918 177.547C74.6765 178.232 69.3534 179.576 67.0457 183.228C63.4457 189.214 72.4611 190.381 77.6918 190.254C87.5072 190 96.8611 186.678 104.615 181.782C113.415 183.685 122.123 184.395 130.707 181.402C134.584 179.931 138.984 178.308 141.076 175.036C141.723 174.047 139.815 173.235 139.2 174.224L139.23 174.275ZM77.4149 188.555C74.5841 188.377 69.5995 188.707 68.3995 186.094C68.2149 182.797 72.6457 180.869 75.9688 180.032C84.4918 177.902 93.4764 179.677 101.907 181.301C94.7995 185.587 86.2765 188.352 77.4149 188.555Z" fill="#5534DA"/>
</svg>
