<svg width="200" height="56" viewBox="0 0 200 56" fill="none" xmlns="http://www.w3.org/2000/svg">
<path d="M13.2718 44.2198V12.5254H0.795898V5.15978H34.7706V12.5254H22.2946V44.2198H13.2718Z" fill="#5534DA"/>
<path d="M54.6036 44.2198V38.3608L54.0467 37.0774V26.587C54.0467 24.727 53.4711 23.2762 52.3201 22.2346C51.2061 21.193 49.4796 20.6722 47.1403 20.6722C45.5437 20.6722 43.9656 20.9326 42.4061 21.4534C40.8838 21.937 39.5842 22.6066 38.5074 23.4622L35.3884 17.38C37.0222 16.2268 38.9901 15.334 41.2922 14.7016C43.5943 14.0692 45.9336 13.753 48.3099 13.753C52.877 13.753 56.423 14.8318 58.9479 16.9894C61.4728 19.147 62.7353 22.5136 62.7353 27.0892V44.2198H54.6036ZM45.4694 44.6662C43.1302 44.6662 41.1251 44.2756 39.4542 43.4944C37.7834 42.676 36.5023 41.5786 35.6112 40.2022C34.7201 38.8258 34.2745 37.282 34.2745 35.5708C34.2745 33.7852 34.7015 32.2228 35.5555 30.8836C36.4466 29.5444 37.8391 28.5028 39.7327 27.7588C41.6264 26.9776 44.0956 26.587 47.1403 26.587H55.1049V31.6648H48.0872C46.045 31.6648 44.634 31.9996 43.8542 32.6692C43.1116 33.3388 42.7403 34.1758 42.7403 35.1802C42.7403 36.2962 43.1673 37.189 44.0213 37.8586C44.9125 38.491 46.1192 38.8072 47.6416 38.8072C49.0897 38.8072 50.3893 38.4724 51.5403 37.8028C52.6914 37.096 53.5268 36.073 54.0467 34.7338L55.3834 38.7514C54.7521 40.6858 53.6011 42.1552 51.9302 43.1596C50.2593 44.164 48.1057 44.6662 45.4694 44.6662Z" fill="#5534DA"/>
<path d="M79.4141 44.6662C76.852 44.6662 74.3828 44.3686 72.0065 43.7734C69.6672 43.141 67.8107 42.3598 66.4368 41.4298L69.333 35.1802C70.7069 36.0358 72.3221 36.7426 74.1786 37.3006C76.0723 37.8214 77.9288 38.0818 79.7482 38.0818C81.7533 38.0818 83.1643 37.84 83.9811 37.3564C84.8351 36.8728 85.2622 36.2032 85.2622 35.3476C85.2622 34.6408 84.928 34.12 84.2596 33.7852C83.6284 33.4132 82.7744 33.1342 81.6976 32.9482C80.6208 32.7622 79.4326 32.5762 78.133 32.3902C76.8706 32.2042 75.5896 31.9624 74.29 31.6648C72.9904 31.33 71.8022 30.8464 70.7254 30.214C69.6487 29.5816 68.7761 28.726 68.1077 27.6472C67.4765 26.5684 67.1609 25.1734 67.1609 23.4622C67.1609 21.565 67.6993 19.891 68.7761 18.4402C69.89 16.9894 71.4866 15.8548 73.566 15.0364C75.6453 14.1808 78.133 13.753 81.0292 13.753C83.0714 13.753 85.1508 13.9762 87.2672 14.4226C89.3837 14.869 91.1474 15.52 92.5583 16.3756L89.6621 22.5694C88.2141 21.7138 86.7474 21.1372 85.2622 20.8396C83.814 20.5048 82.4031 20.3374 81.0292 20.3374C79.0984 20.3374 77.6875 20.5978 76.7963 21.1186C75.9052 21.6394 75.4596 22.309 75.4596 23.1274C75.4596 23.8714 75.7752 24.4294 76.4065 24.8014C77.0748 25.1734 77.9474 25.471 79.0242 25.6942C80.101 25.9174 81.2706 26.122 82.533 26.308C83.8326 26.4568 85.1322 26.6986 86.4318 27.0334C87.7314 27.3682 88.901 27.8518 89.9406 28.4842C91.0174 29.0794 91.89 29.9164 92.5583 30.9952C93.2267 32.0368 93.5609 33.4132 93.5609 35.1244C93.5609 36.9844 93.0039 38.6398 91.89 40.0906C90.7761 41.5042 89.1609 42.6202 87.0444 43.4386C84.9651 44.257 82.4217 44.6662 79.4141 44.6662Z" fill="#5534DA"/>
<path d="M104.841 38.0818L105.063 27.4798L119.043 14.1994H129.403L115.98 27.8704L111.468 31.5532L104.841 38.0818ZM97.6558 44.2198V2.81618H106.344V44.2198H97.6558ZM119.99 44.2198L109.853 31.609L115.312 24.8572L130.517 44.2198H119.99Z" fill="#5534DA"/>
<path d="M133.158 44.2198V14.1994H141.847V44.2198H133.158ZM137.503 10.0144C135.906 10.0144 134.606 9.54937 133.604 8.61938C132.601 7.68937 132.1 6.53617 132.1 5.15978C132.1 3.78338 132.601 2.63018 133.604 1.70018C134.606 0.770177 135.906 0.305176 137.503 0.305176C139.099 0.305176 140.399 0.751577 141.401 1.64438C142.404 2.49998 142.905 3.61598 142.905 4.99238C142.905 6.44318 142.404 7.65218 141.401 8.61938C140.436 9.54937 139.136 10.0144 137.503 10.0144Z" fill="#5534DA"/>
<path d="M149.703 44.2198V13.5298C149.703 10.1446 150.706 7.44758 152.711 5.43878C154.716 3.39278 157.575 2.36977 161.288 2.36977C162.55 2.36977 163.757 2.49998 164.908 2.76038C166.096 3.02078 167.099 3.42998 167.916 3.98798L165.632 10.2934C165.149 9.95857 164.611 9.69817 164.017 9.51217C163.423 9.32617 162.792 9.23318 162.123 9.23318C160.861 9.23318 159.877 9.60517 159.171 10.3492C158.503 11.056 158.169 12.1348 158.169 13.5856V16.3756L158.392 20.1142V44.2198H149.703ZM145.08 21.565V14.869H165.855V21.565H145.08Z" fill="#5534DA"/>
<path d="M173.249 55.4914C171.689 55.4914 170.149 55.2496 168.626 54.766C167.104 54.2824 165.86 53.6128 164.895 52.7572L168.069 46.5634C168.738 47.1586 169.499 47.6236 170.353 47.9584C171.244 48.2932 172.116 48.4606 172.97 48.4606C174.196 48.4606 175.161 48.163 175.867 47.5678C176.609 47.0098 177.278 46.0612 177.872 44.722L179.431 41.0392L180.1 40.0906L190.849 14.1994H199.203L185.669 46.0612C184.704 48.4792 183.59 50.3764 182.327 51.7528C181.102 53.1292 179.728 54.0964 178.206 54.6544C176.721 55.2124 175.068 55.4914 173.249 55.4914ZM178.373 45.3916L165.006 14.1994H173.973L184.332 39.3094L178.373 45.3916Z" fill="#5534DA"/>
</svg>
